<svg height="26" viewBox="0 0 79 26" width="79" xmlns="http://www.w3.org/2000/svg" xmlns:xlink="http://www.w3.org/1999/xlink"><linearGradient id="a" x1="141.091084%" x2="28.647394%" y1="-40.124277%" y2="79.668193%"><stop offset="0" stop-color="#a8a8e5"/><stop offset="1" stop-color="#2f3a90"/></linearGradient><g fill="none" fill-rule="evenodd" transform="translate(-1 -4)"><g transform="matrix(.8660254 -.5 .5 .8660254 .20856 13.501204)"><path d="m3.92-.00000003h14.6468001c.1840213 0 .3332.14917872.3332.3332l-.0000702 14.91976733c0 .1839825-.1491474.3331298-.3331299.3331298-.0007113 0-.0014226-.0000023-.0021339-.0000068-9.89136604-.0633624-15.28961778-.0626419-16.19475526.0021614-.91531407.065532-1.70528435.6970006-2.36991084 1.8944056v-13.56265733c0-2.16495622 1.75504378-3.92 3.92-3.92zm14.9658206 7.42939904h-11.81499936v.47738487h11.81499936z" fill="url(#a)"/><path d="m1.90793706 15.5341259h4.98656998v3.8158741h-4.98656998c-1.05372454 0-1.90793706-.8542125-1.90793706-1.9079371 0-1.0537245.85421252-1.907937 1.90793706-1.907937z" fill="#151d5f"/></g><path d="m36.728 12.296c.3546684 0 .6556654.0279997.903.084s.4409993.1119997.581.168l-.266 1.372c-.1306673-.0466669-.2869991-.0886665-.469-.126s-.3803323-.056-.595-.056c-.5600028 0-.9449989.1493318-1.155.448-.210001.2986682-.315.6859976-.315 1.162v.49h2.688v1.414h-2.688v5.908h-1.694v-7.84c0-.9520048.2473309-1.6939973.742-2.226s1.2506616-.798 2.268-.798zm5.222 11.004c-.5040025-.0093334-.921665-.0653328-1.253-.168s-.594999-.2496657-.791-.441-.3336663-.4293319-.413-.714-.119-.6089982-.119-.973v-8.428l1.694-.28v8.386c0 .2053344.0163332.3779993.049.518s.0909996.2589995.175.357.1983326.1726664.343.224.3289989.0909999.553.119zm9.232-3.808c0 .5786696-.0839992 1.1059976-.252 1.582s-.4059985.8819983-.714 1.218-.6789978.5973324-1.113.784-.9123307.28-1.435.28-.9986645-.0933324-1.428-.28-.7979985-.4479983-1.106-.784-.5483325-.7419976-.721-1.218-.259-1.0033304-.259-1.582.0863325-1.1036643.259-1.575.4153318-.8749983.728-1.211.6836645-.5949991 1.113-.777.9006641-.273 1.414-.273.9869978.0909991 1.421.273.8049985.4409983 1.113.777.5483325.7396643.721 1.211.259.9963304.259 1.575zm-1.736 0c0-.7280036-.1563318-1.3043312-.469-1.729s-.7489972-.637-1.309-.637-.9963318.2123312-1.309.637-.469 1.0009964-.469 1.729c0 .737337.1563318 1.3206645.469 1.75s.7489972.644 1.309.644.9963318-.2146645 1.309-.644.469-1.012663.469-1.75zm8.7-.938c-.2146677.8213374-.4456654 1.6216628-.693 2.401s-.4923321 1.5143299-.735 2.205h-1.386c-.1866676-.4293355-.3826656-.9193306-.588-1.47s-.4106656-1.1386635-.616-1.764-.4106656-1.2833299-.616-1.974-.405999-1.3953297-.602-2.114h1.792c.0840004.392002.1819994.8143311.294 1.267s.2286661.9146643.35 1.386.2473327.9309978.378 1.379.2613327.8586648.392 1.232c.1400007-.4293355.277666-.8726644.413-1.33s.2636661-.9146644.385-1.372.2356661-.9029978.343-1.337.2029996-.8423314.287-1.225h1.302c.0840004.3826686.1773328.7909978.28 1.225s.2123328.8796644.329 1.337c.1166673.4573356.242666.9146644.378 1.372s.2729993.9006645.413 1.33c.1213339-.3733352.2473327-.7839978.378-1.232s.2589994-.9076643.385-1.379.2449994-.9333311.357-1.386.2099996-.874998.294-1.267h1.75c-.196001.7186703-.3966656 1.4233299-.602 2.114s-.4106656 1.3486635-.616 1.974-.4106656 1.2133306-.616 1.764-.405999 1.0406645-.602 1.47h-1.372c-.2426679-.6906701-.492332-1.4256628-.749-2.205-.2566679-.7793372-.4923323-1.5796626-.707-2.401zm6.992.952c0-.541336.0839992-1.0476643.252-1.519s.4083318-.8796649.721-1.225.6929978-.615999 1.141-.812.9519972-.294 1.512-.294c.6906701 0 1.3439969.1259987 1.96.378l-.364 1.386c-.196001-.0840004-.4176654-.1539997-.665-.21s-.5109986-.084-.791-.084c-.66267 0-1.1666649.2076646-1.512.623s-.518 1.0009962-.518 1.757c0 .7280036.1633317 1.3043312.49 1.729s.8773295.637 1.652.637c.2893348 0 .5739986-.0279997.854-.084s.5226656-.1259996.728-.21l.238 1.4c-.1866676.0933338-.4689981.177333-.847.252s-.7676647.112-1.169.112c-.6253365 0-1.1689977-.0956657-1.631-.287s-.8446651-.4573316-1.148-.798c-.3033348-.3406684-.5296659-.7466643-.679-1.218s-.224-.9823306-.224-1.533zm10.016 3.654c-.466669-.9613381-.9449975-2.0649938-1.435-3.311-.4900024-1.2460062-.9356647-2.5829929-1.337-4.011h1.806c.1026672.4106687.221666.8516643.357 1.323s.2799992.9426643.434 1.414.3126659.9286644.476 1.372c.1633342.4433355.3149993.8423316.455 1.197.1400007-.3546684.2893325-.7536645.448-1.197.1586675-.4433356.3149992-.9006643.469-1.372s.3009993-.9426643.441-1.414.2613328-.9123313.364-1.323h1.75c-.4013353 1.4280071-.8469975 2.7649938-1.337 4.011-.4900024 1.2460062-.968331 2.3496619-1.435 3.311z" fill="#3f4a5c"/></g></svg>